<svg xmlns="http://www.w3.org/2000/svg" viewBox="0 0 614.2 590.64"><defs><style>.e32aa57b-7013-4b3f-a0e2-e13c1d945982{isolation:isolate;}.\32 398c786-8108-4294-b286-669280464b7f,.\33 3f9153a-ee86-4ce4-9a48-584a6cf73a68,.\37 8d5fa02-bad1-40fe-8f8a-e7bc249fa79a,.\37 b2e6411-de95-48f2-855b-7d61b3dfcd3f,.\38 1a006e2-a876-4037-92cb-d5025222c08e,.b348f451-3fae-47ec-b0ec-9c43322c64df,.e7664d96-bf4b-4247-b36c-ce951f425de1{fill:#c92028;}.\31 fe0c59d-45d5-415b-9586-2245cb15287d,.\33 e757298-04e6-42dc-a762-6e351fa03c77,.\39 2b74780-e160-483a-b117-2716c2948737,.c5708687-cbba-4880-b97d-8aea8e817625,.e7664d96-bf4b-4247-b36c-ce951f425de1{stroke:#000;}.\31 fe0c59d-45d5-415b-9586-2245cb15287d,.\32 5b94cdb-a75f-4274-8dc1-7d779ce0e425,.\33 3f9153a-ee86-4ce4-9a48-584a6cf73a68,.\33 c520144-c74b-4f6e-8fce-a2802ccd3817,.\33 e757298-04e6-42dc-a762-6e351fa03c77,.\34 efcd8fd-d7c5-4c2e-8784-033c5bfca142,.\36 8055f92-2ed3-4905-837e-7181394bd745,.\39 2b74780-e160-483a-b117-2716c2948737,.aa4e815b-4237-4a34-b732-95b246b0dfa8,.b2d7127e-c475-4288-a6f2-747e8d5a2e60,.b348f451-3fae-47ec-b0ec-9c43322c64df,.c5708687-cbba-4880-b97d-8aea8e817625,.c6fb8730-0ed8-472f-9e4b-9db5eb63aa88,.cb0c433d-0bd1-482e-b0c2-2e9975312aa9,.e7664d96-bf4b-4247-b36c-ce951f425de1{stroke-miterlimit:10;}.\31 fe0c59d-45d5-415b-9586-2245cb15287d,.\35 98d2d3a-3bb9-49cf-a581-e472c2bdc6bd,.\36 8055f92-2ed3-4905-837e-7181394bd745,.c97ba9fc-3429-4279-9b99-fe07d9da119c,.cb0c433d-0bd1-482e-b0c2-2e9975312aa9{fill:#fff;}.\33 e757298-04e6-42dc-a762-6e351fa03c77,.\34 efcd8fd-d7c5-4c2e-8784-033c5bfca142,.aa4e815b-4237-4a34-b732-95b246b0dfa8,.d31540de-92c8-49ec-b6ad-c21fe8c14781,.ec845c34-bcba-4a64-8ce5-add72ffcfb73{fill:none;}.\32 398c786-8108-4294-b286-669280464b7f,.\32 5b94cdb-a75f-4274-8dc1-7d779ce0e425,.\32 6184f2d-a53d-4d5b-92c0-66445893ce9a,.\33 3f9153a-ee86-4ce4-9a48-584a6cf73a68,.\33 c520144-c74b-4f6e-8fce-a2802ccd3817,.\34 efcd8fd-d7c5-4c2e-8784-033c5bfca142,.\35 98d2d3a-3bb9-49cf-a581-e472c2bdc6bd,.\36 8055f92-2ed3-4905-837e-7181394bd745,.\37 8d5fa02-bad1-40fe-8f8a-e7bc249fa79a,.b2d7127e-c475-4288-a6f2-747e8d5a2e60,.b348f451-3fae-47ec-b0ec-9c43322c64df,.c6fb8730-0ed8-472f-9e4b-9db5eb63aa88,.c97ba9fc-3429-4279-9b99-fe07d9da119c,.cb0c433d-0bd1-482e-b0c2-2e9975312aa9,.d31540de-92c8-49ec-b6ad-c21fe8c14781,.ec845c34-bcba-4a64-8ce5-add72ffcfb73,.ef5ac9f8-5ae3-4f6b-94fd-96c98653d355{stroke:#1a1a1a;}.\33 c520144-c74b-4f6e-8fce-a2802ccd3817,.b2d7127e-c475-4288-a6f2-747e8d5a2e60,.c5708687-cbba-4880-b97d-8aea8e817625,.ef5ac9f8-5ae3-4f6b-94fd-96c98653d355{fill:#fff5f6;}.\39 2b74780-e160-483a-b117-2716c2948737,.c6fb8730-0ed8-472f-9e4b-9db5eb63aa88{fill:#b02028;}.\32 398c786-8108-4294-b286-669280464b7f,.\32 6184f2d-a53d-4d5b-92c0-66445893ce9a,.\35 98d2d3a-3bb9-49cf-a581-e472c2bdc6bd,.c97ba9fc-3429-4279-9b99-fe07d9da119c,.d31540de-92c8-49ec-b6ad-c21fe8c14781,.ec845c34-bcba-4a64-8ce5-add72ffcfb73,.ef5ac9f8-5ae3-4f6b-94fd-96c98653d355{stroke-linecap:round;}.\32 398c786-8108-4294-b286-669280464b7f,.\32 6184f2d-a53d-4d5b-92c0-66445893ce9a,.\35 98d2d3a-3bb9-49cf-a581-e472c2bdc6bd,.\37 8d5fa02-bad1-40fe-8f8a-e7bc249fa79a,.c97ba9fc-3429-4279-9b99-fe07d9da119c,.d31540de-92c8-49ec-b6ad-c21fe8c14781,.ec845c34-bcba-4a64-8ce5-add72ffcfb73,.ef5ac9f8-5ae3-4f6b-94fd-96c98653d355{stroke-linejoin:round;}.\32 398c786-8108-4294-b286-669280464b7f,.\32 5b94cdb-a75f-4274-8dc1-7d779ce0e425,.\32 6184f2d-a53d-4d5b-92c0-66445893ce9a,.\36 8055f92-2ed3-4905-837e-7181394bd745,.\37 8d5fa02-bad1-40fe-8f8a-e7bc249fa79a,.b2d7127e-c475-4288-a6f2-747e8d5a2e60,.b348f451-3fae-47ec-b0ec-9c43322c64df,.c97ba9fc-3429-4279-9b99-fe07d9da119c,.d31540de-92c8-49ec-b6ad-c21fe8c14781,.ef5ac9f8-5ae3-4f6b-94fd-96c98653d355{stroke-width:0.8px;}.\32 5b94cdb-a75f-4274-8dc1-7d779ce0e425,.\32 6184f2d-a53d-4d5b-92c0-66445893ce9a{fill:#1a1a1a;}.\38 1a006e2-a876-4037-92cb-d5025222c08e{mix-blend-mode:multiply;}.aa4e815b-4237-4a34-b732-95b246b0dfa8{stroke:#e6e6e6;stroke-width:0.75px;}</style></defs><title>scene</title><g class="e32aa57b-7013-4b3f-a0e2-e13c1d945982"><g id="21f542ef-f4ad-4fb3-84e0-70dfcded243f" data-name="圖層 1"><g id="e1dcb9a2-317a-41c1-9065-a716ce766ce4" data-name="island_1"><polygon class="e7664d96-bf4b-4247-b36c-ce951f425de1" points="225.32 233.14 225.32 242.73 257.57 261.21 258.4 252.24 225.32 233.14"></polygon><polyline class="e7664d96-bf4b-4247-b36c-ce951f425de1" points="381.05 470.08 506.8 399 506.72 367.32 381.05 439.8"></polyline><polygon class="e7664d96-bf4b-4247-b36c-ce951f425de1" points="324.3 342.62 324.79 329.12 224.6 271.27 224.6 285.53 324.3 342.62"></polygon><polygon class="1fe0c59d-45d5-415b-9586-2245cb15287d" points="324.55 175.85 589.17 328.63 404.21 434.48 271.9 358.09 324.55 328.63 225.32 271.34 258.4 252.24 225.32 233.14 324.55 175.85"></polygon><polyline class="4efcd8fd-d7c5-4c2e-8784-033c5bfca142" points="331.59 311.78 283.71 284.14 379.46 228.86 546.72 325.77 451.27 380.88 391.18 345.36"></polyline><path class="3c520144-c74b-4f6e-8fce-a2802ccd3817" d="M283.71,228.86v55.28l47.87,27.64s9.56-46.21,33.2-32.56,26.39,66.14,26.39,66.14l60.09,35.52v-69.8L283.71,215Z"></path><polygon class="33f9153a-ee86-4ce4-9a48-584a6cf73a68" points="451.27 311.08 546.72 257.5 546.72 325.77 451.27 380.88 451.27 311.08"></polygon><polygon class="cb0c433d-0bd1-482e-b0c2-2e9975312aa9" points="278.94 208.22 278.94 222.16 446.69 319.19 446.69 304.85 278.94 208.22"></polygon><polyline class="cb0c433d-0bd1-482e-b0c2-2e9975312aa9" points="446.69 304.85 446.69 319.19 551.03 258.37 551.03 244.61 446.69 304.85"></polyline><path class="33f9153a-ee86-4ce4-9a48-584a6cf73a68" d="M373.84,287.38l-42.26,24.4s6.31-31,21.13-34.55C365.91,274.07,373.84,287.38,373.84,287.38Z"></path><path class="33f9153a-ee86-4ce4-9a48-584a6cf73a68" d="M449.41,291.6q-2.72,4.38-5.44,0V243.93q2.72,3.22,5.44,0Z"></path><ellipse class="33f9153a-ee86-4ce4-9a48-584a6cf73a68" cx="446.69" cy="243.34" rx="2.82" ry="2.41"></ellipse><path class="33f9153a-ee86-4ce4-9a48-584a6cf73a68" d="M387,159.87q-2.72,4.38-5.44,0V112.2q2.72,3.22,5.44,0Z"></path><ellipse class="33f9153a-ee86-4ce4-9a48-584a6cf73a68" cx="384.26" cy="111.61" rx="2.82" ry="2.41"></ellipse><path class="33f9153a-ee86-4ce4-9a48-584a6cf73a68" d="M407.4,170.81q-2.72,4.38-5.44,0V123.14q2.72,3.22,5.44,0Z"></path><ellipse class="33f9153a-ee86-4ce4-9a48-584a6cf73a68" cx="404.68" cy="122.55" rx="2.82" ry="2.41"></ellipse><path class="33f9153a-ee86-4ce4-9a48-584a6cf73a68" d="M431.65,186q-2.72,4.38-5.44,0V138.33q2.72,3.22,5.44,0Z"></path><ellipse class="33f9153a-ee86-4ce4-9a48-584a6cf73a68" cx="428.94" cy="137.75" rx="2.82" ry="2.41"></ellipse><path class="33f9153a-ee86-4ce4-9a48-584a6cf73a68" d="M473.51,207.82q-2.72,4.38-5.44,0V160.15q2.72,3.22,5.44,0Z"></path><ellipse class="33f9153a-ee86-4ce4-9a48-584a6cf73a68" cx="470.8" cy="159.56" rx="2.82" ry="2.41"></ellipse><path class="33f9153a-ee86-4ce4-9a48-584a6cf73a68" d="M515.38,234q-2.72,4.38-5.44,0V186.29q2.72,3.22,5.44,0Z"></path><ellipse class="33f9153a-ee86-4ce4-9a48-584a6cf73a68" cx="512.66" cy="185.7" rx="2.82" ry="2.41"></ellipse><polygon class="cb0c433d-0bd1-482e-b0c2-2e9975312aa9" points="278.94 204.49 383.45 144.51 551.03 240.88 446.69 301.12 278.94 204.49"></polygon><polygon class="cb0c433d-0bd1-482e-b0c2-2e9975312aa9" points="303.35 174.24 303.35 163.19 443.98 243.93 443.87 255.1 303.35 174.24"></polygon><path class="33f9153a-ee86-4ce4-9a48-584a6cf73a68" d="M540.17,243.56q-2.72,4.38-5.44,0V195.89q2.72,3.22,5.44,0Z"></path><ellipse class="33f9153a-ee86-4ce4-9a48-584a6cf73a68" cx="537.45" cy="195.31" rx="2.82" ry="2.41"></ellipse><path class="33f9153a-ee86-4ce4-9a48-584a6cf73a68" d="M323.67,220.09q-2.72,4.38-5.44,0V172.41q2.72,3.22,5.44,0Z"></path><ellipse class="33f9153a-ee86-4ce4-9a48-584a6cf73a68" cx="320.96" cy="171.83" rx="2.82" ry="2.41"></ellipse><path class="33f9153a-ee86-4ce4-9a48-584a6cf73a68" d="M347.93,235.28q-2.72,4.38-5.44,0V187.61q2.72,3.22,5.44,0Z"></path><ellipse class="33f9153a-ee86-4ce4-9a48-584a6cf73a68" cx="345.21" cy="187.02" rx="2.82" ry="2.41"></ellipse><path class="33f9153a-ee86-4ce4-9a48-584a6cf73a68" d="M389.79,257.1q-2.72,4.38-5.44,0V209.42q2.72,3.22,5.44,0Z"></path><ellipse class="33f9153a-ee86-4ce4-9a48-584a6cf73a68" cx="387.07" cy="208.84" rx="2.82" ry="2.41"></ellipse><path class="33f9153a-ee86-4ce4-9a48-584a6cf73a68" d="M430.13,281q-2.72,4.38-5.44,0V233.3q2.72,3.22,5.44,0Z"></path><ellipse class="33f9153a-ee86-4ce4-9a48-584a6cf73a68" cx="427.42" cy="232.72" rx="2.82" ry="2.41"></ellipse><path class="33f9153a-ee86-4ce4-9a48-584a6cf73a68" d="M449.41,291.88q-2.72,4.38-5.44,0V244.21q2.72,3.22,5.44,0Z"></path><ellipse class="33f9153a-ee86-4ce4-9a48-584a6cf73a68" cx="446.69" cy="243.62" rx="2.82" ry="2.41"></ellipse><polygon class="cb0c433d-0bd1-482e-b0c2-2e9975312aa9" points="449.41 255.1 534.63 206.43 534.63 195.31 449.41 243.93 449.41 255.1"></polygon><path class="33f9153a-ee86-4ce4-9a48-584a6cf73a68" d="M467.88,284.73q-2.72,4.38-5.44,0V237.06q2.72,3.22,5.44,0Z"></path><ellipse class="33f9153a-ee86-4ce4-9a48-584a6cf73a68" cx="465.16" cy="236.47" rx="2.82" ry="2.41"></ellipse><path class="33f9153a-ee86-4ce4-9a48-584a6cf73a68" d="M303.26,209.14q-2.72,4.38-5.44,0V161.47q2.72,3.22,5.44,0Z"></path><ellipse class="33f9153a-ee86-4ce4-9a48-584a6cf73a68" cx="300.54" cy="160.89" rx="2.82" ry="2.41"></ellipse><path class="33f9153a-ee86-4ce4-9a48-584a6cf73a68" d="M522.77,253.1q-2.72,4.38-5.44,0V205.43q2.72,3.22,5.44,0Z"></path><ellipse class="33f9153a-ee86-4ce4-9a48-584a6cf73a68" cx="520.05" cy="204.84" rx="2.82" ry="2.41"></ellipse><polygon class="cb0c433d-0bd1-482e-b0c2-2e9975312aa9" points="278.94 153.31 383.45 93.33 551.03 189.7 446.69 249.94 278.94 153.31"></polygon><path class="4efcd8fd-d7c5-4c2e-8784-033c5bfca142" d="M365.22,275.13C391.88,290.52,395,349.7,395,349.7"></path><path class="4efcd8fd-d7c5-4c2e-8784-033c5bfca142" d="M327.78,311.84s7.12-35,23.83-39"></path><polygon class="cb0c433d-0bd1-482e-b0c2-2e9975312aa9" points="278.94 208.22 278.94 204.09 446.69 299.62 446.69 304.85 278.94 208.22"></polygon><polygon class="cb0c433d-0bd1-482e-b0c2-2e9975312aa9" points="283.34 201.35 278.94 204.09 446.69 299.62 449.41 298.01 283.34 201.35"></polygon><polygon class="cb0c433d-0bd1-482e-b0c2-2e9975312aa9" points="289.39 206.31 289.39 202.85 293.02 204.95 293.02 202.36 296.3 204.53 296.3 200.47 301.15 203.22 301.15 207.15 304.33 208.66 304.33 211.47 307.57 213.48 307.57 216.81 289.39 206.31"></polygon><polygon class="cb0c433d-0bd1-482e-b0c2-2e9975312aa9" points="285.86 207.46 285.86 204 289.49 206.1 289.49 203.51 292.77 205.67 292.77 201.62 297.62 204.36 297.62 208.3 300.8 209.8 300.8 212.61 304.04 214.63 304.04 217.95 285.86 207.46"></polygon><polygon class="33f9153a-ee86-4ce4-9a48-584a6cf73a68" points="292.56 211.33 292.56 209.78 296.8 212.02 296.8 213.77 292.56 211.33"></polygon><polygon class="cb0c433d-0bd1-482e-b0c2-2e9975312aa9" points="292.85 201.6 296.05 200.24 301 203.02 297.75 204.47 292.85 201.6"></polygon><polygon class="cb0c433d-0bd1-482e-b0c2-2e9975312aa9" points="297.86 208.26 301.32 206.89 304.42 208.57 300.92 210.04 297.86 208.26"></polygon><polygon class="cb0c433d-0bd1-482e-b0c2-2e9975312aa9" points="301.06 212.84 304.47 211.61 307.57 213.29 304.12 214.62 301.06 212.84"></polygon><polygon class="cb0c433d-0bd1-482e-b0c2-2e9975312aa9" points="304.04 217.95 307.57 216.22 307.57 213.48 304.04 214.63 304.04 217.95"></polygon><line class="cb0c433d-0bd1-482e-b0c2-2e9975312aa9" x1="285.86" y1="204" x2="292.77" y2="201.61"></line><polygon class="cb0c433d-0bd1-482e-b0c2-2e9975312aa9" points="315.61 222.24 315.61 218.78 319.24 220.88 319.24 218.29 322.52 220.46 322.52 216.4 327.37 219.15 327.37 223.08 330.55 224.58 330.55 227.4 333.79 229.41 333.79 232.74 315.61 222.24"></polygon><polygon class="cb0c433d-0bd1-482e-b0c2-2e9975312aa9" points="312.08 223.39 312.08 219.93 315.71 222.03 315.71 219.43 318.99 221.6 318.99 217.54 323.84 220.29 323.84 224.23 327.02 225.73 327.02 228.54 330.26 230.56 330.26 233.88 312.08 223.39"></polygon><polygon class="33f9153a-ee86-4ce4-9a48-584a6cf73a68" points="318.78 227.26 318.78 225.71 323.02 227.94 323.02 229.7 318.78 227.26"></polygon><polygon class="cb0c433d-0bd1-482e-b0c2-2e9975312aa9" points="319.07 217.53 322.27 216.17 327.22 218.95 323.98 220.4 319.07 217.53"></polygon><polygon class="cb0c433d-0bd1-482e-b0c2-2e9975312aa9" points="324.08 224.19 327.54 222.82 330.64 224.5 327.14 225.96 324.08 224.19"></polygon><polygon class="cb0c433d-0bd1-482e-b0c2-2e9975312aa9" points="327.28 228.77 330.69 227.54 333.79 229.22 330.34 230.54 327.28 228.77"></polygon><polygon class="cb0c433d-0bd1-482e-b0c2-2e9975312aa9" points="330.26 233.88 333.79 232.14 333.79 229.41 330.26 230.56 330.26 233.88"></polygon><line class="cb0c433d-0bd1-482e-b0c2-2e9975312aa9" x1="312.08" y1="219.93" x2="318.99" y2="217.54"></line><polygon class="cb0c433d-0bd1-482e-b0c2-2e9975312aa9" points="342.67 237.44 342.67 233.97 346.29 236.08 346.29 233.48 349.57 235.65 349.57 231.59 354.43 234.34 354.43 238.28 357.61 239.78 357.61 242.59 360.85 244.6 360.85 247.93 342.67 237.44"></polygon><polygon class="cb0c433d-0bd1-482e-b0c2-2e9975312aa9" points="339.14 238.58 339.14 235.12 342.76 237.22 342.76 234.63 346.04 236.79 346.04 232.74 350.9 235.49 350.9 239.42 354.08 240.92 354.08 243.74 357.31 245.75 357.31 249.08 339.14 238.58"></polygon><polygon class="33f9153a-ee86-4ce4-9a48-584a6cf73a68" points="345.84 242.45 345.84 240.91 350.07 243.14 350.07 244.9 345.84 242.45"></polygon><polygon class="cb0c433d-0bd1-482e-b0c2-2e9975312aa9" points="346.13 232.72 349.33 231.36 354.27 234.14 351.03 235.59 346.13 232.72"></polygon><polygon class="cb0c433d-0bd1-482e-b0c2-2e9975312aa9" points="351.14 239.39 354.6 238.01 357.7 239.69 354.19 241.16 351.14 239.39"></polygon><polygon class="cb0c433d-0bd1-482e-b0c2-2e9975312aa9" points="354.34 243.97 357.75 242.73 360.85 244.41 357.39 245.74 354.34 243.97"></polygon><polygon class="cb0c433d-0bd1-482e-b0c2-2e9975312aa9" points="357.31 249.08 360.85 247.34 360.85 244.6 357.31 245.75 357.31 249.08"></polygon><line class="cb0c433d-0bd1-482e-b0c2-2e9975312aa9" x1="339.14" y1="235.12" x2="346.04" y2="232.74"></line><polygon class="cb0c433d-0bd1-482e-b0c2-2e9975312aa9" points="373.65 254.41 373.65 250.95 377.27 253.05 377.27 250.46 380.55 252.62 380.55 248.57 385.41 251.32 385.41 255.25 388.59 256.75 388.59 259.56 391.82 261.58 391.82 264.9 373.65 254.41"></polygon><polygon class="cb0c433d-0bd1-482e-b0c2-2e9975312aa9" points="370.12 255.56 370.12 252.09 373.74 254.2 373.74 251.6 377.02 253.77 377.02 249.71 381.88 252.46 381.88 256.4 385.06 257.9 385.06 260.71 388.29 262.73 388.29 266.05 370.12 255.56"></polygon><polygon class="33f9153a-ee86-4ce4-9a48-584a6cf73a68" points="376.82 259.43 376.82 257.88 381.05 260.11 381.05 261.87 376.82 259.43"></polygon><polygon class="cb0c433d-0bd1-482e-b0c2-2e9975312aa9" points="377.11 249.69 380.31 248.34 385.25 251.12 382.01 252.57 377.11 249.69"></polygon><polygon class="cb0c433d-0bd1-482e-b0c2-2e9975312aa9" points="382.12 256.36 385.58 254.99 388.68 256.67 385.17 258.13 382.12 256.36"></polygon><polygon class="cb0c433d-0bd1-482e-b0c2-2e9975312aa9" points="385.32 260.94 388.73 259.71 391.82 261.39 388.37 262.71 385.32 260.94"></polygon><polygon class="cb0c433d-0bd1-482e-b0c2-2e9975312aa9" points="388.29 266.05 391.82 264.31 391.82 261.58 388.29 262.73 388.29 266.05"></polygon><line class="cb0c433d-0bd1-482e-b0c2-2e9975312aa9" x1="370.12" y1="252.09" x2="377.02" y2="249.71"></line><polygon class="cb0c433d-0bd1-482e-b0c2-2e9975312aa9" points="399.87 270.34 399.87 266.88 403.49 268.98 403.49 266.39 406.77 268.55 406.77 264.5 411.63 267.24 411.63 271.18 414.81 272.68 414.81 275.49 418.05 277.51 418.05 280.83 399.87 270.34"></polygon><polygon class="cb0c433d-0bd1-482e-b0c2-2e9975312aa9" points="396.34 271.49 396.34 268.02 399.96 270.13 399.96 267.53 403.24 269.7 403.24 265.64 408.1 268.39 408.1 272.32 411.28 273.83 411.28 276.64 414.51 278.65 414.51 281.98 396.34 271.49"></polygon><polygon class="33f9153a-ee86-4ce4-9a48-584a6cf73a68" points="403.04 275.35 403.04 273.81 407.27 276.04 407.27 277.8 403.04 275.35"></polygon><polygon class="cb0c433d-0bd1-482e-b0c2-2e9975312aa9" points="403.33 265.62 406.53 264.26 411.47 267.05 408.23 268.49 403.33 265.62"></polygon><polygon class="cb0c433d-0bd1-482e-b0c2-2e9975312aa9" points="408.34 272.29 411.8 270.91 414.9 272.6 411.39 274.06 408.34 272.29"></polygon><polygon class="cb0c433d-0bd1-482e-b0c2-2e9975312aa9" points="411.54 276.87 414.95 275.63 418.05 277.32 414.59 278.64 411.54 276.87"></polygon><polygon class="cb0c433d-0bd1-482e-b0c2-2e9975312aa9" points="414.51 281.98 418.05 280.24 418.05 277.51 414.51 278.65 414.51 281.98"></polygon><line class="cb0c433d-0bd1-482e-b0c2-2e9975312aa9" x1="396.34" y1="268.02" x2="403.24" y2="265.64"></line><polygon class="cb0c433d-0bd1-482e-b0c2-2e9975312aa9" points="430.95 287.98 430.95 284.51 434.57 286.62 434.57 284.02 437.85 286.19 437.85 282.13 442.71 284.88 442.71 288.82 445.88 290.32 445.88 293.13 449.12 295.15 449.12 298.47 430.95 287.98"></polygon><polygon class="cb0c433d-0bd1-482e-b0c2-2e9975312aa9" points="427.42 289.12 427.42 285.66 431.04 287.76 431.04 285.17 434.32 287.34 434.32 283.28 439.18 286.03 439.18 289.96 442.35 291.46 442.35 294.27 445.59 296.29 445.59 299.62 427.42 289.12"></polygon><polygon class="33f9153a-ee86-4ce4-9a48-584a6cf73a68" points="434.12 292.99 434.12 291.45 438.35 293.68 438.35 295.44 434.12 292.99"></polygon><polygon class="cb0c433d-0bd1-482e-b0c2-2e9975312aa9" points="434.4 283.26 437.61 281.9 442.55 284.69 439.31 286.13 434.4 283.26"></polygon><polygon class="cb0c433d-0bd1-482e-b0c2-2e9975312aa9" points="439.41 289.93 442.88 288.55 445.98 290.23 442.47 291.7 439.41 289.93"></polygon><polygon class="cb0c433d-0bd1-482e-b0c2-2e9975312aa9" points="442.61 294.51 446.03 293.27 449.12 294.95 445.67 296.28 442.61 294.51"></polygon><polygon class="cb0c433d-0bd1-482e-b0c2-2e9975312aa9" points="445.59 299.62 449.12 297.88 449.12 295.15 445.59 296.29 445.59 299.62"></polygon><line class="cb0c433d-0bd1-482e-b0c2-2e9975312aa9" x1="427.42" y1="285.66" x2="434.32" y2="283.28"></line><polygon class="cb0c433d-0bd1-482e-b0c2-2e9975312aa9" points="446.69 299.62 551.03 239.34 551.03 244.61 446.69 304.85 446.69 299.62"></polygon><polygon class="cb0c433d-0bd1-482e-b0c2-2e9975312aa9" points="546.8 237.06 551.03 239.34 446.69 299.62 446.69 295.15 546.8 237.06"></polygon><polygon class="cb0c433d-0bd1-482e-b0c2-2e9975312aa9" points="472.73 281.34 472.73 277.88 469.11 279.98 469.11 277.39 465.83 279.55 465.83 275.5 460.97 278.24 460.97 282.18 457.8 283.68 457.8 286.49 454.56 288.51 454.56 291.83 472.73 281.34"></polygon><polygon class="cb0c433d-0bd1-482e-b0c2-2e9975312aa9" points="476.26 282.49 476.26 279.02 472.64 281.13 472.64 278.53 469.36 280.7 469.36 276.64 464.5 279.39 464.5 283.32 461.33 284.83 461.33 287.64 458.09 289.65 458.09 292.98 476.26 282.49"></polygon><polygon class="33f9153a-ee86-4ce4-9a48-584a6cf73a68" points="469.56 286.35 469.56 284.81 465.33 287.04 465.33 288.8 469.56 286.35"></polygon><polygon class="cb0c433d-0bd1-482e-b0c2-2e9975312aa9" points="469.27 276.62 466.07 275.26 461.13 278.05 464.37 279.49 469.27 276.62"></polygon><polygon class="cb0c433d-0bd1-482e-b0c2-2e9975312aa9" points="464.27 283.29 460.8 281.91 457.7 283.6 461.21 285.06 464.27 283.29"></polygon><polygon class="cb0c433d-0bd1-482e-b0c2-2e9975312aa9" points="461.07 287.87 457.65 286.63 454.56 288.32 458.01 289.64 461.07 287.87"></polygon><polygon class="cb0c433d-0bd1-482e-b0c2-2e9975312aa9" points="458.09 292.98 454.56 291.24 454.56 288.51 458.09 289.65 458.09 292.98"></polygon><line class="cb0c433d-0bd1-482e-b0c2-2e9975312aa9" x1="476.26" y1="279.02" x2="469.36" y2="276.64"></line><polygon class="cb0c433d-0bd1-482e-b0c2-2e9975312aa9" points="506.72 262.18 506.72 258.71 503.09 260.81 503.09 258.22 499.81 260.39 499.81 256.33 494.96 259.08 494.96 263.01 491.78 264.52 491.78 267.33 488.54 269.34 488.54 272.67 506.72 262.18"></polygon><polygon class="cb0c433d-0bd1-482e-b0c2-2e9975312aa9" points="510.25 263.32 510.25 259.86 506.63 261.96 506.63 259.37 503.35 261.53 503.35 257.48 498.49 260.23 498.49 264.16 495.31 265.66 495.31 268.47 492.07 270.49 492.07 273.81 510.25 263.32"></polygon><polygon class="33f9153a-ee86-4ce4-9a48-584a6cf73a68" points="503.55 267.19 503.55 265.64 499.31 267.88 499.31 269.63 503.55 267.19"></polygon><polygon class="cb0c433d-0bd1-482e-b0c2-2e9975312aa9" points="503.26 257.46 500.06 256.1 495.12 258.88 498.36 260.33 503.26 257.46"></polygon><polygon class="cb0c433d-0bd1-482e-b0c2-2e9975312aa9" points="498.25 264.13 494.79 262.75 491.69 264.43 495.19 265.9 498.25 264.13"></polygon><polygon class="cb0c433d-0bd1-482e-b0c2-2e9975312aa9" points="495.05 268.71 491.64 267.47 488.54 269.15 491.99 270.48 495.05 268.71"></polygon><polygon class="cb0c433d-0bd1-482e-b0c2-2e9975312aa9" points="492.07 273.81 488.54 272.08 488.54 269.34 492.07 270.49 492.07 273.81"></polygon><line class="cb0c433d-0bd1-482e-b0c2-2e9975312aa9" x1="510.25" y1="259.86" x2="503.34" y2="257.48"></line><polygon class="cb0c433d-0bd1-482e-b0c2-2e9975312aa9" points="535.5 245.85 535.5 242.39 531.88 244.5 531.88 241.9 528.6 244.07 528.6 240.01 523.74 242.76 523.74 246.69 520.56 248.2 520.56 251.01 517.32 253.02 517.32 256.35 535.5 245.85"></polygon><polygon class="cb0c433d-0bd1-482e-b0c2-2e9975312aa9" points="539.03 247 539.03 243.54 535.41 245.64 535.41 243.05 532.13 245.21 532.13 241.16 527.27 243.91 527.27 247.84 524.09 249.34 524.09 252.15 520.86 254.17 520.86 257.49 539.03 247"></polygon><polygon class="33f9153a-ee86-4ce4-9a48-584a6cf73a68" points="532.33 250.87 532.33 249.32 528.09 251.56 528.09 253.31 532.33 250.87"></polygon><polygon class="cb0c433d-0bd1-482e-b0c2-2e9975312aa9" points="532.04 241.14 528.84 239.78 523.9 242.56 527.14 244.01 532.04 241.14"></polygon><polygon class="cb0c433d-0bd1-482e-b0c2-2e9975312aa9" points="527.03 247.81 523.57 246.43 520.47 248.11 523.98 249.58 527.03 247.81"></polygon><polygon class="cb0c433d-0bd1-482e-b0c2-2e9975312aa9" points="523.83 252.38 520.42 251.15 517.32 252.83 520.77 254.16 523.83 252.38"></polygon><polygon class="cb0c433d-0bd1-482e-b0c2-2e9975312aa9" points="520.86 257.49 517.32 255.76 517.32 253.02 520.86 254.17 520.86 257.49"></polygon><line class="cb0c433d-0bd1-482e-b0c2-2e9975312aa9" x1="539.03" y1="243.54" x2="532.13" y2="241.16"></line><path class="33f9153a-ee86-4ce4-9a48-584a6cf73a68" d="M578.7,165.33c-7.4,2.9-17.61,1.76-29-1.73L541,151.49l-10.91.46-3.52,2.32c-33.2-15.94-66.85-41.21-66.85-41.21l-33.17-7.94,92.65,54-75.84,50.06-.76,41.62,120.07-69.32-.76-1.06Z"></path><polygon class="33f9153a-ee86-4ce4-9a48-584a6cf73a68" points="442.71 208.58 483.85 111.36 540.97 151.49 442.71 208.58"></polygon><polygon class="33f9153a-ee86-4ce4-9a48-584a6cf73a68" points="295.73 124.14 342.21 102.12 350.91 109.75 309.56 131.37 295.73 124.14"></polygon><path class="33f9153a-ee86-4ce4-9a48-584a6cf73a68" d="M483.85,111.36,346.61,32.62,305,129l-9.29-4.86S271,167.19,248.49,153.57l180.8,103.82s21.9,3.77,38.22-43.43L444.72,202Z"></path><path class="4efcd8fd-d7c5-4c2e-8784-033c5bfca142" d="M351.75,35.57,309,138s-19.1,30.28-30,33.08"></path><path class="4efcd8fd-d7c5-4c2e-8784-033c5bfca142" d="M272.16,167.16S300.46,147.39,305,129"></path><path class="4efcd8fd-d7c5-4c2e-8784-033c5bfca142" d="M301,126.88s-27.41,37.91-37.22,35.45"></path><path class="4efcd8fd-d7c5-4c2e-8784-033c5bfca142" d="M359.55,40,314.22,143.86s-19.16,29.24-26.86,32"></path><path class="4efcd8fd-d7c5-4c2e-8784-033c5bfca142" d="M371.52,45.39l-46,103.47s-21.92,30.73-25.74,31.86"></path><path class="4efcd8fd-d7c5-4c2e-8784-033c5bfca142" d="M379.89,50.1,335.44,153.36s-13.92,33-24.49,34.46"></path><path class="4efcd8fd-d7c5-4c2e-8784-033c5bfca142" d="M387.77,54.67,340.4,174.54s-2.43,22.95-11.19,24.56"></path><path class="4efcd8fd-d7c5-4c2e-8784-033c5bfca142" d="M397.59,60.47,350,179.66s-2.9,23.22-11.63,24.77"></path><path class="4efcd8fd-d7c5-4c2e-8784-033c5bfca142" d="M407.41,66.28,359.54,184.78s-3.37,23.48-12.08,25"></path><path class="4efcd8fd-d7c5-4c2e-8784-033c5bfca142" d="M417.23,72.09,369.11,189.9s-3.83,23.75-12.52,25.19"></path><path class="4efcd8fd-d7c5-4c2e-8784-033c5bfca142" d="M427,77.9,378.68,195s-4.3,24-13,25.4"></path><path class="4efcd8fd-d7c5-4c2e-8784-033c5bfca142" d="M436.87,83.71,388.25,200.14s-4.76,24.28-13.41,25.61"></path><path class="4efcd8fd-d7c5-4c2e-8784-033c5bfca142" d="M446.69,89.52,397.82,205.26s-5.23,24.54-13.86,25.82"></path><path class="4efcd8fd-d7c5-4c2e-8784-033c5bfca142" d="M456.51,95.32,407.39,210.38s-5.69,24.81-14.31,26"></path><path class="4efcd8fd-d7c5-4c2e-8784-033c5bfca142" d="M466.33,101.13,417,215.5s-6.16,25.08-14.75,26.24"></path><path class="4efcd8fd-d7c5-4c2e-8784-033c5bfca142" d="M476.15,106.94,426.52,220.62s-6.63,25.34-15.2,26.45"></path><polygon class="c6fb8730-0ed8-472f-9e4b-9db5eb63aa88" points="471.9 173.02 490.07 130.08 515.3 147.81 471.9 173.02"></polygon><polygon class="4efcd8fd-d7c5-4c2e-8784-033c5bfca142" points="460.32 185.57 486.71 123.2 523.36 148.95 460.32 185.57"></polygon><path class="4efcd8fd-d7c5-4c2e-8784-033c5bfca142" d="M460.32,199.09s10.88,36,21.61,29.41"></path><path class="4efcd8fd-d7c5-4c2e-8784-033c5bfca142" d="M467.15,195.08s11.22,35.41,22.68,28.43"></path><path class="4efcd8fd-d7c5-4c2e-8784-033c5bfca142" d="M474,191.07s11.56,34.79,23.75,27.44"></path><path class="4efcd8fd-d7c5-4c2e-8784-033c5bfca142" d="M480.81,187.06s11.89,34.18,24.82,26.46"></path><path class="4efcd8fd-d7c5-4c2e-8784-033c5bfca142" d="M487.64,183.05s12.23,33.56,25.89,25.47"></path><path class="4efcd8fd-d7c5-4c2e-8784-033c5bfca142" d="M494.47,179s12.56,32.94,27,24.48"></path><path class="4efcd8fd-d7c5-4c2e-8784-033c5bfca142" d="M501.3,175s12.9,32.33,28,23.5"></path><path class="4efcd8fd-d7c5-4c2e-8784-033c5bfca142" d="M508.13,171s13.24,31.71,29.09,22.51"></path><path class="4efcd8fd-d7c5-4c2e-8784-033c5bfca142" d="M515,167s13.57,31.09,30.16,21.52"></path><path class="4efcd8fd-d7c5-4c2e-8784-033c5bfca142" d="M521.79,163S535.7,193.47,553,183.53"></path><path class="4efcd8fd-d7c5-4c2e-8784-033c5bfca142" d="M528.62,159s14.25,29.86,32.3,19.55"></path><path class="4efcd8fd-d7c5-4c2e-8784-033c5bfca142" d="M535.45,155s14.58,29.24,33.37,18.56"></path><path class="33f9153a-ee86-4ce4-9a48-584a6cf73a68" d="M571.28,162.68c-7.15,2.81-17,1.7-28-1.67l-8.46-11.71-10.55.44-3.4,2.25c-32.1-15.42-64.64-39.85-64.64-39.85l-32.07-7.68,89.59,52.23-73.33,48.41-.74,40.24,116.11-67-.74-1Z"></path><polygon class="33f9153a-ee86-4ce4-9a48-584a6cf73a68" points="439.79 204.5 479.56 110.49 534.8 149.29 439.79 204.5"></polygon><polygon class="33f9153a-ee86-4ce4-9a48-584a6cf73a68" points="297.66 122.84 342.6 101.55 351.02 108.94 311.03 129.83 297.66 122.84"></polygon><path class="33f9153a-ee86-4ce4-9a48-584a6cf73a68" d="M479.56,110.49,346.86,34.35l-40.21,93.19-9-4.7S273.8,164.48,252,151.3L426.81,251.7s21.18,3.64,37-42l-22-11.52Z"></path><path class="4efcd8fd-d7c5-4c2e-8784-033c5bfca142" d="M351.83,37.21l-41.38,99s-18.47,29.28-29.05,32"></path><path class="4efcd8fd-d7c5-4c2e-8784-033c5bfca142" d="M274.87,164.44s27.36-19.12,31.78-36.9"></path><path class="4efcd8fd-d7c5-4c2e-8784-033c5bfca142" d="M302.74,125.5s-26.51,36.66-36,34.28"></path><path class="4efcd8fd-d7c5-4c2e-8784-033c5bfca142" d="M359.38,41.53,315.54,141.92s-18.53,28.28-26,31"></path><path class="4efcd8fd-d7c5-4c2e-8784-033c5bfca142" d="M370.94,46.7l-44.5,100.05s-21.19,29.71-24.89,30.81"></path><path class="4efcd8fd-d7c5-4c2e-8784-033c5bfca142" d="M379,51.25l-43,99.85S322.6,183,312.38,184.42"></path><path class="4efcd8fd-d7c5-4c2e-8784-033c5bfca142" d="M386.66,55.67l-45.8,115.91s-2.35,22.19-10.82,23.75"></path><path class="4efcd8fd-d7c5-4c2e-8784-033c5bfca142" d="M396.15,61.29l-46,115.24s-2.8,22.45-11.25,23.95"></path><path class="4efcd8fd-d7c5-4c2e-8784-033c5bfca142" d="M405.65,66.9,359.36,181.48s-3.25,22.71-11.68,24.15"></path><path class="4efcd8fd-d7c5-4c2e-8784-033c5bfca142" d="M415.14,72.52,368.62,186.43s-3.7,23-12.11,24.36"></path><path class="4efcd8fd-d7c5-4c2e-8784-033c5bfca142" d="M424.64,78.14,377.87,191.39s-4.15,23.22-12.54,24.56"></path><path class="4efcd8fd-d7c5-4c2e-8784-033c5bfca142" d="M434.13,83.75l-47,112.58s-4.61,23.48-13,24.76"></path><path class="4efcd8fd-d7c5-4c2e-8784-033c5bfca142" d="M443.63,89.37,396.37,201.29s-5.06,23.73-13.4,25"></path><path class="4efcd8fd-d7c5-4c2e-8784-033c5bfca142" d="M453.13,95l-47.5,111.26s-5.51,24-13.83,25.17"></path><path class="4efcd8fd-d7c5-4c2e-8784-033c5bfca142" d="M462.62,100.6,414.88,211.19s-6,24.25-14.26,25.37"></path><path class="4efcd8fd-d7c5-4c2e-8784-033c5bfca142" d="M472.12,106.22l-48,109.93s-6.41,24.51-14.69,25.58"></path><polygon class="c6fb8730-0ed8-472f-9e4b-9db5eb63aa88" points="468.01 170.12 485.58 128.6 509.98 145.73 468.01 170.12"></polygon><path class="4efcd8fd-d7c5-4c2e-8784-033c5bfca142" d="M456.81,195.32s10.52,34.84,20.9,28.44"></path><path class="4efcd8fd-d7c5-4c2e-8784-033c5bfca142" d="M463.42,191.45s10.85,34.24,21.93,27.49"></path><path class="4efcd8fd-d7c5-4c2e-8784-033c5bfca142" d="M470,187.57s11.17,33.64,23,26.53"></path><path class="4efcd8fd-d7c5-4c2e-8784-033c5bfca142" d="M476.63,183.69s11.5,33,24,25.58"></path><path class="4efcd8fd-d7c5-4c2e-8784-033c5bfca142" d="M483.23,179.81s11.82,32.45,25,24.63"></path><path class="4efcd8fd-d7c5-4c2e-8784-033c5bfca142" d="M489.84,175.93S502,207.79,515.9,199.61"></path><path class="4efcd8fd-d7c5-4c2e-8784-033c5bfca142" d="M496.44,172.06s12.47,31.26,27.1,22.72"></path><path class="4efcd8fd-d7c5-4c2e-8784-033c5bfca142" d="M503,168.18s12.8,30.66,28.13,21.77"></path><path class="4efcd8fd-d7c5-4c2e-8784-033c5bfca142" d="M509.65,164.3s13.13,30.06,29.16,20.81"></path><path class="4efcd8fd-d7c5-4c2e-8784-033c5bfca142" d="M516.25,160.42s13.45,29.47,30.2,19.86"></path><path class="4efcd8fd-d7c5-4c2e-8784-033c5bfca142" d="M522.86,156.54s13.78,28.87,31.23,18.9"></path><path class="4efcd8fd-d7c5-4c2e-8784-033c5bfca142" d="M529.46,152.67s14.1,28.27,32.27,18"></path><polygon class="33f9153a-ee86-4ce4-9a48-584a6cf73a68" points="352.8 236.13 352.8 250.17 377.11 264.2 377.11 250.17 352.8 236.13"></polygon><polygon class="cb0c433d-0bd1-482e-b0c2-2e9975312aa9" points="354.37 235.22 352.8 236.13 377.11 250.17 378.75 249.22 354.37 235.22"></polygon><polygon class="cb0c433d-0bd1-482e-b0c2-2e9975312aa9" points="377.11 264.2 378.75 263.23 378.75 249.22 377.11 250.17 377.11 264.2"></polygon><polygon class="e7664d96-bf4b-4247-b36c-ce951f425de1" points="589.17 328.63 589.17 347.9 404.24 452.88 404.88 435.05 589.17 328.63"></polygon><polygon class="e7664d96-bf4b-4247-b36c-ce951f425de1" points="403.9 452.51 404.55 434.68 272.24 358.29 272.24 377.11 403.9 452.51"></polygon><polygon class="c5708687-cbba-4880-b97d-8aea8e817625" points="284.74 385.02 284.74 414.52 381.05 470.08 381.05 439.8 284.74 385.02"></polygon><g id="f171bee1-0a17-48ba-a630-32c2c199dc82" data-name="trigger_man_watching_door"><g id="f7eae925-366f-44fa-aa6a-f49185f9252f" data-name="man"><path class="c97ba9fc-3429-4279-9b99-fe07d9da119c" d="M339.24,309.64s5.23-2.45,7,2.18,1.16,4.75,1.16,4.75l-2,.84.23,7s-7.84,0-8.85-1.61,1.54-8.66,1.54-8.66-1.53-.4-1.52-1.39,1.14-1.24,2.16-.25S339.24,309.64,339.24,309.64Z"></path><ellipse class="68055f92-2ed3-4905-837e-7181394bd745" cx="343.92" cy="312.2" rx="0.19" ry="0.2"></ellipse><path class="25b94cdb-a75f-4274-8dc1-7d779ce0e425" d="M345.17,309.83s-1.12-4.45-2.35-4.88l-.68.85s-3.82-.71-4.55.36a10.7,10.7,0,0,1-1.89,2s.58,2.77,0,3S339.1,313,339.1,313l-.26-3.14,2-1,2.66.11Z"></path><path class="c97ba9fc-3429-4279-9b99-fe07d9da119c" d="M336.81,322.24s-11.46,18.14-10.3,29.33c0,0,17.18,1.39,22.78-2.05,0,0-1-21.61-3.62-25.52C345.67,324,338.72,323.89,336.81,322.24Z"></path><path class="26184f2d-a53d-4d5b-92c0-66445893ce9a" d="M326.43,351.91s8.74,15.2,14.17,26.72l4.54.81s3.58-20.86,3.68-29.69"></path><path class="ec845c34-bcba-4a64-8ce5-add72ffcfb73" d="M340.6,378.63V382s5.56,2,8.69,0l-4.14-2.57Z"></path><rect class="81a006e2-a876-4037-92cb-d5025222c08e" x="336.32" y="310.27" width="3.08" height="1.35" rx="0.67" ry="0.67"></rect><path id="83f9a344-1647-41c8-a8a5-08073612c5a2" data-name="hand" class="c97ba9fc-3429-4279-9b99-fe07d9da119c" d="M344.91,328.35s4.82,11.5,8.06,13.28c0,0-12-7.46-12.36-15.61"></path></g><rect id="df50ff1a-c038-471f-bccd-eebcb6173fde" data-name="hidden" class="aa4e815b-4237-4a34-b732-95b246b0dfa8" x="312.08" y="228.58" width="160.03" height="166.98"></rect><g id="767fdc93-2a7f-4dc5-af00-f2d4bcc7aab3" data-name="sign"><path class="7b2e6411-de95-48f2-855b-7d61b3dfcd3f" d="M367.21,341.46l-.5,10.68h-1.09l-.5-10.68Zm-.07,15.17h-2v-2.49h2Z"></path></g></g></g><g id="88b9d065-c515-4f20-a615-cbb818aa5388" data-name="island_3"><polygon class="e7664d96-bf4b-4247-b36c-ce951f425de1" points="58.75 306.42 58.75 318.24 191.19 395.56 190.87 382.7 58.75 306.42"></polygon><polygon class="3e757298-04e6-42dc-a762-6e351fa03c77" points="146.83 255.57 278.95 331.85 190.87 382.7 58.75 306.42 146.83 255.57"></polygon><polygon class="e7664d96-bf4b-4247-b36c-ce951f425de1" points="278.95 331.85 278.95 344.89 191.19 395.56 190.87 382.7 278.95 331.85"></polygon><g id="4f8748eb-a727-4b36-9340-76af3e06dc36" data-name="trigger_icecream"><g id="09f1432e-b69e-4a2f-a023-1bd98404760f" data-name="camerapeople"><polygon class="cb0c433d-0bd1-482e-b0c2-2e9975312aa9" points="130.52 249.64 130.52 257.88 141.84 251.87 141.84 245.45 130.52 249.64"></polygon><polygon class="cb0c433d-0bd1-482e-b0c2-2e9975312aa9" points="137.66 243.03 141.84 245.45 130.52 249.64 127.96 247.95 137.66 243.03"></polygon><polygon class="cb0c433d-0bd1-482e-b0c2-2e9975312aa9" points="130.52 257.88 127.1 255.5 127.96 247.95 130.52 249.64 130.52 257.88"></polygon><circle class="cb0c433d-0bd1-482e-b0c2-2e9975312aa9" cx="137.33" cy="250.83" r="2.09"></circle><path class="78d5fa02-bad1-40fe-8f8a-e7bc249fa79a" d="M116.29,235.34s-11.81,17.53-10.62,28.34c0,0,17.71,1.34,23.47-2,0,0-1.06-20.88-3.73-24.66C125.41,237,118.25,236.93,116.29,235.34Z"></path><polygon class="2398c786-8108-4294-b286-669280464b7f" points="116.58 235.79 123.09 239.77 124.18 237.78 116.58 235.79"></polygon><path class="78d5fa02-bad1-40fe-8f8a-e7bc249fa79a" d="M120.93,241.71s8.56,8.66,12.28,9.1c0,0-14.06-2.42-17.23-9.65"></path><path class="26184f2d-a53d-4d5b-92c0-66445893ce9a" d="M105.59,264s9,14.68,14.6,25.82l4.68.78s3.69-20.16,3.79-28.69"></path><line class="d31540de-92c8-49ec-b6ad-c21fe8c14781" x1="124.54" y1="252.26" x2="124.65" y2="261.92"></line><path class="25b94cdb-a75f-4274-8dc1-7d779ce0e425" d="M124.14,227.36c4.08-1.31,5.47-7.64-6.05-4.69,0,0-2-.52-2.06-.48-.25,1-2.57,17.75-7.1,14.21,0,0,4.67,4.51,7.16,2.55l1.52-1.54,6.51-10S124.11,227.37,124.14,227.36Z"></path><path class="c97ba9fc-3429-4279-9b99-fe07d9da119c" d="M118,226a.12.12,0,0,1,.08-.14c.73-.29,5.78-2.73,7.47,1.34,1.59,3.83,1.64,4,1.54,4.09l0,0-1.94.76a.13.13,0,0,0-.08.12l.37,4.91s-7.24.25-8.28-1.29.21-5.81.57-6.75a.12.12,0,0,0-.08-.17c-.38-.11-1.45-.51-1.44-1.29,0-.95,1.18-1.18,2.22-.24S118.15,226.54,118,226Z"></path><circle class="68055f92-2ed3-4905-837e-7181394bd745" cx="123.28" cy="228.78" r="0.2"></circle><path class="ec845c34-bcba-4a64-8ce5-add72ffcfb73" d="M120.19,289.83v3.27s5.73,1.93,9,0l-4.27-2.49Z"></path><line class="4efcd8fd-d7c5-4c2e-8784-033c5bfca142" x1="148.28" y1="245.45" x2="152.26" y2="238.82"></line><line class="4efcd8fd-d7c5-4c2e-8784-033c5bfca142" x1="156.61" y1="249.64" x2="150.27" y2="249.64"></line><line class="4efcd8fd-d7c5-4c2e-8784-033c5bfca142" x1="146.83" y1="256.03" x2="156.61" y2="263.94"></line></g><g id="24d9bde4-05e4-4e9f-9559-2675a6d49c85" data-name="people"><path class="b2d7127e-c475-4288-a6f2-747e8d5a2e60" d="M150.37,263.55S155,260.79,152,258s-4.59-1.33-3.65-.48-5.23-4.57-5.95-1.14c0,0-5.31-.18-4.94,3.37,0,0-4.71,4.29-1.45,6.34,0,0-1.19,4.31,2.13,3.48,0,0,1,2.44,2.55,1"></path><path class="c97ba9fc-3429-4279-9b99-fe07d9da119c" d="M142.16,273.83A24.41,24.41,0,0,0,134,298.16s13.56,1.15,18-1.7c0,0-.81-17.93-2.86-21.17C149.15,275.28,143.67,275.2,142.16,273.83Z"></path><path class="26184f2d-a53d-4d5b-92c0-66445893ce9a" d="M134,298.44s6.89,12.61,11.18,22.17l3.59.67s2.82-17.31,2.9-24.63"></path><path class="c97ba9fc-3429-4279-9b99-fe07d9da119c" d="M143.37,261.47s5.23-2.33,7,2.08,1.16,4.52,1.16,4.52l-2,.8.23,6.61s-7.84,0-8.85-1.54,1.54-8.23,1.54-8.23-1.53-.38-1.52-1.32,1.14-1.18,2.16-.24S143.37,261.47,143.37,261.47Z"></path><ellipse class="68055f92-2ed3-4905-837e-7181394bd745" cx="148.82" cy="264.57" rx="0.19" ry="0.2"></ellipse><path class="ec845c34-bcba-4a64-8ce5-add72ffcfb73" d="M144.73,329.73v3.38s5.56,2,8.69,0l-4.14-2.57Z"></path><polyline class="c97ba9fc-3429-4279-9b99-fe07d9da119c" points="140.59 276.51 148.36 278.29 149.2 276.1"></polyline></g><g id="7a21ea35-7e46-4f7c-acfa-18c20e7e76e7" data-name="car"><polygon class="1fe0c59d-45d5-415b-9586-2245cb15287d" points="143.92 303.92 175.22 322.08 216.39 298.31 185.09 280.15 143.92 303.92"></polygon><polygon class="c5708687-cbba-4880-b97d-8aea8e817625" points="185.09 280.15 185.09 256.38 216.39 274.14 216.39 298.31 185.09 280.15"></polygon><polygon class="1fe0c59d-45d5-415b-9586-2245cb15287d" points="204.22 245.34 185.09 256.38 216.39 274.14 235.99 263.99 204.22 245.34"></polygon><polygon class="1fe0c59d-45d5-415b-9586-2245cb15287d" points="165.7 308.05 176.08 314.18 206.17 296.21 195.88 290.59 165.7 308.05"></polygon><polygon class="3e757298-04e6-42dc-a762-6e351fa03c77" points="155.49 302.16 176.08 314.18 206.17 296.21 185.67 284.7 155.49 302.16"></polygon><g id="4205d1e5-675b-4f4f-8f9d-d8d0acbe3b84" data-name="cover"><polygon class="1fe0c59d-45d5-415b-9586-2245cb15287d" points="158.44 303.98 168.81 310.1 198.91 292.14 188.62 286.52 158.44 303.98"></polygon><line class="3e757298-04e6-42dc-a762-6e351fa03c77" x1="174.45" y1="296.71" x2="176.97" y2="297.79"></line><polyline class="1fe0c59d-45d5-415b-9586-2245cb15287d" points="180.84 295.47 182.89 296.32 182.89 294.37 176.97 297.79 176.97 300.38 174.45 299.25 174.45 296.71 180.84 293.19 182.89 294.1"></polyline></g><circle class="1fe0c59d-45d5-415b-9586-2245cb15287d" cx="189.76" cy="274.86" r="1.6"></circle><path class="3e757298-04e6-42dc-a762-6e351fa03c77" d="M188,266.38l1.71,6.12,1.71-7.26S188,266.11,188,266.38Z"></path><path class="1fe0c59d-45d5-415b-9586-2245cb15287d" d="M190.87,267.8s-3.43.25-3.49-.64,0-3.1,0-3.1h1.37l.12,1.87,2,0"></path><circle class="1fe0c59d-45d5-415b-9586-2245cb15287d" cx="196.12" cy="278.3" r="2.04"></circle><path class="3e757298-04e6-42dc-a762-6e351fa03c77" d="M194.41,269.38l1.71,6.12,1.71-7.26S194.33,269.11,194.41,269.38Z"></path><path class="1fe0c59d-45d5-415b-9586-2245cb15287d" d="M197.23,270.8s-3.43.25-3.49-.64,0-3.1,0-3.1h1.37l.12,1.87,2,0"></path><circle class="1fe0c59d-45d5-415b-9586-2245cb15287d" cx="203.15" cy="283.03" r="2.68"></circle><path class="3e757298-04e6-42dc-a762-6e351fa03c77" d="M201.43,273.46l1.71,6.12,1.71-7.26S201.36,273.2,201.43,273.46Z"></path><path class="1fe0c59d-45d5-415b-9586-2245cb15287d" d="M204.26,274.88s-3.43.25-3.49-.64,0-3.1,0-3.1h1.37l.12,1.87,2,0"></path><polygon class="1fe0c59d-45d5-415b-9586-2245cb15287d" points="235.99 263.99 235.99 329.23 175.22 362.3 175.22 322.08 216.39 298.31 216.39 274.14 235.99 263.99"></polygon><path class="1fe0c59d-45d5-415b-9586-2245cb15287d" d="M192,267.88s-2.85.21-2.91-.53,0-2.58,0-2.58h1.14l.1,1.56H192"></path><polygon class="598d2d3a-3bb9-49cf-a581-e472c2bdc6bd" points="143.92 303.92 143.92 344.67 175.22 362.3 175.22 322.08 143.92 303.92"></polygon><path class="3e757298-04e6-42dc-a762-6e351fa03c77" d="M196.71,329.81a22,22,0,0,0-11.54,20c0,6.19,5.66,10.06,11.33,6.78,6.53-3.77,11.75-9,11.75-20C208.25,326,196.71,329.81,196.71,329.81Z"></path><path class="1fe0c59d-45d5-415b-9586-2245cb15287d" d="M196.71,341a3.42,3.42,0,0,0-1.79,3.11,1.14,1.14,0,0,0,1.76,1.05,3.24,3.24,0,0,0,1.83-3.11C198.51,340.59,196.71,341,196.71,341Z"></path><line class="3e757298-04e6-42dc-a762-6e351fa03c77" x1="196.71" y1="341.04" x2="196.71" y2="329.81"></line><line class="3e757298-04e6-42dc-a762-6e351fa03c77" x1="196.71" y1="345.05" x2="196.71" y2="356.68"></line><line class="3e757298-04e6-42dc-a762-6e351fa03c77" x1="198.09" y1="341.65" x2="206.53" y2="333.2"></line><line class="3e757298-04e6-42dc-a762-6e351fa03c77" x1="195.07" y1="344.67" x2="186.32" y2="353.42"></line><line class="3e757298-04e6-42dc-a762-6e351fa03c77" x1="198.82" y1="343.21" x2="207.1" y2="343.21"></line><line class="3e757298-04e6-42dc-a762-6e351fa03c77" x1="195.09" y1="343.21" x2="186.31" y2="343.21"></line><line class="3e757298-04e6-42dc-a762-6e351fa03c77" x1="198.24" y1="344.6" x2="204.1" y2="350.45"></line><line class="3e757298-04e6-42dc-a762-6e351fa03c77" x1="195.6" y1="341.96" x2="189.4" y2="335.75"></line><path class="3e757298-04e6-42dc-a762-6e351fa03c77" d="M196.71,332a18.37,18.37,0,0,0-9.65,16.71c0,5.17,4.73,8.41,9.47,5.67,5.46-3.15,9.82-7.48,9.82-16.71C206.36,328.89,196.71,332,196.71,332Z"></path><path d="M196.71,326.08c-10.41,6-14.77,12.93-14.77,25.58,0,7.92,7.24,12.88,14.5,8.68,8.36-4.82,15-11.46,15-25.59C211.48,321.56,196.71,326.08,196.71,326.08Zm-.21,30.49c-5.67,3.27-11.33-.59-11.33-6.78a22,22,0,0,1,11.54-20s11.54-3.77,11.54,6.78C208.25,347.62,203,352.8,196.5,356.57Z"></path><polygon class="e7664d96-bf4b-4247-b36c-ce951f425de1" points="199.67 306.09 199.67 317.83 206.82 321.94 206.82 309.96 199.67 306.09"></polygon><polygon class="e7664d96-bf4b-4247-b36c-ce951f425de1" points="220.76 302.89 220.76 314.32 206.82 321.94 206.82 309.96 220.76 302.89"></polygon><polygon class="e7664d96-bf4b-4247-b36c-ce951f425de1" points="199.09 303.86 212.78 295.83 221.25 300.73 207.66 308.81 199.09 303.86"></polygon><polygon class="e7664d96-bf4b-4247-b36c-ce951f425de1" points="198.98 305.72 199.09 303.86 207.66 308.81 207.66 310.42 198.98 305.72"></polygon><polygon class="e7664d96-bf4b-4247-b36c-ce951f425de1" points="221.25 300.73 221.25 302.32 207.66 310.42 207.66 308.81 221.25 300.73"></polygon><polygon class="1fe0c59d-45d5-415b-9586-2245cb15287d" points="212.88 307.16 212.88 310.2 214.72 309.07 214.72 306.09 212.88 307.16"></polygon><polygon class="1fe0c59d-45d5-415b-9586-2245cb15287d" points="184.87 318.69 184.87 325.19 192.01 329.57 192.01 322.55 184.87 318.69"></polygon><polygon class="1fe0c59d-45d5-415b-9586-2245cb15287d" points="205.95 315.48 205.95 321.68 192.01 329.57 192.01 322.55 205.95 315.48"></polygon><polygon class="1fe0c59d-45d5-415b-9586-2245cb15287d" points="184.28 316.57 197.97 308.55 206.45 313.45 192.85 321.52 184.28 316.57"></polygon><polygon class="1fe0c59d-45d5-415b-9586-2245cb15287d" points="184.18 318.44 184.28 316.57 192.85 321.52 192.85 323.14 184.18 318.44"></polygon><polygon class="1fe0c59d-45d5-415b-9586-2245cb15287d" points="206.45 313.45 206.45 315.04 192.85 323.14 192.85 321.52 206.45 313.45"></polygon></g><g id="fa05a6bd-6b20-4901-83dd-62cb67ec5c26" data-name="babu"><circle class="26184f2d-a53d-4d5b-92c0-66445893ce9a" cx="152.83" cy="320.69" r="2.87"></circle><polygon class="c97ba9fc-3429-4279-9b99-fe07d9da119c" points="153.4 323.9 153.74 324.08 154.89 324.68 157.33 322.68 156 321.25 153.4 323.9"></polygon><path class="c97ba9fc-3429-4279-9b99-fe07d9da119c" d="M155.7,324.68s4.84,2.54,4,4-2.83-.34-1.61-1.63l-1.69-1.15s-.75,5.75,3.86,4.37-3-7.62-3-7.62"></path><path class="c97ba9fc-3429-4279-9b99-fe07d9da119c" d="M160.15,325.47a2.49,2.49,0,0,1,3.56,1.52,20.57,20.57,0,0,1,1.21,4.37s3.73-4.17,3.93-7.75A11.39,11.39,0,0,0,166,325a25.49,25.49,0,0,1-3.59-2c-.95-.63-4,.65-4,.65"></path></g><rect id="00c1fc8f-bbaf-4ce1-b6fa-b6371a2c9c9a" data-name="hidden" class="aa4e815b-4237-4a34-b732-95b246b0dfa8" x="104.27" y="214.84" width="136.7" height="146.73"></rect><g id="c3f1251f-88b4-4fa4-8ed3-a95f5870c565" data-name="sign"><path class="7b2e6411-de95-48f2-855b-7d61b3dfcd3f" d="M179.71,241.74l-.5,10.68h-1.09l-.5-10.68Zm-.07,15.17h-2v-2.49h2Z"></path></g><g id="1bd9e703-6c07-4c0d-979b-799a9e442763" data-name="hand"><g id="57fb8399-8eda-4a17-948c-f5377880046e" data-name="icecream"><polyline class="c97ba9fc-3429-4279-9b99-fe07d9da119c" points="158.76 280.67 162.13 287.42 164.61 279.92"></polyline><ellipse class="c97ba9fc-3429-4279-9b99-fe07d9da119c" cx="161.68" cy="279.98" rx="2.92" ry="1.59"></ellipse><circle class="ef5ac9f8-5ae3-4f6b-94fd-96c98653d355" cx="160.5" cy="278.81" r="1.99"></circle><circle class="2398c786-8108-4294-b286-669280464b7f" cx="163.04" cy="276.82" r="2.04"></circle><circle class="c97ba9fc-3429-4279-9b99-fe07d9da119c" cx="160.81" cy="275.03" r="2.04"></circle></g><path class="c97ba9fc-3429-4279-9b99-fe07d9da119c" d="M148,280.11s11.25,5.37,14.85,4.55c0,0-13.88,2.39-19.61-3.42"></path></g></g></g><g id="674cc2b9-5c1c-4068-8b95-4aae995530a1" data-name="island_2"><polygon class="e7664d96-bf4b-4247-b36c-ce951f425de1" points="31.99 402.11 31.99 414.03 65.41 433.04 65.07 421.21 31.99 402.11"></polygon><polygon class="1fe0c59d-45d5-415b-9586-2245cb15287d" points="325.53 463.56 259.38 425.37 197.38 459.4 131.22 421.21 164.3 402.11 98.15 363.92 31.99 402.11 65.07 421.21 31.99 440.3 197.38 535.79 325.53 463.56"></polygon><path class="c97ba9fc-3429-4279-9b99-fe07d9da119c" d="M162.83,412.73s-5-2.45-6.76,2.18-1.12,4.75-1.12,4.75l1.91.84-.22,7s7.57,0,8.54-1.61-1.49-8.66-1.49-8.66,1.48-.4,1.47-1.39-1.1-1.24-2.08-.25S162.83,412.73,162.83,412.73Z"></path><ellipse class="68055f92-2ed3-4905-837e-7181394bd745" cx="158.32" cy="415.3" rx="0.18" ry="0.2"></ellipse><path class="25b94cdb-a75f-4274-8dc1-7d779ce0e425" d="M157.11,412.93s1.08-4.45,2.27-4.88l.65.85s3.69-.71,4.39.36a10.53,10.53,0,0,0,1.82,2s-.56,2.77,0,3-3.27,1.84-3.27,1.84l.25-3.14-2-1-2.57.11Z"></path><path class="c97ba9fc-3429-4279-9b99-fe07d9da119c" d="M165.18,425.34s11.06,18.14,9.94,29.33c0,0-16.58,1.39-22-2.05,0,0,1-21.61,3.5-25.52C156.63,427.09,163.34,427,165.18,425.34Z"></path><path class="26184f2d-a53d-4d5b-92c0-66445893ce9a" d="M175.2,455s-8.43,15.2-13.68,26.72l-4.39.81s-3.45-20.86-3.55-29.69"></path><path class="ec845c34-bcba-4a64-8ce5-add72ffcfb73" d="M161.52,481.72v3.38s-5.37,2-8.38,0l4-2.57Z"></path><rect class="81a006e2-a876-4037-92cb-d5025222c08e" x="162.68" y="413.36" width="2.97" height="1.35" rx="0.67" ry="0.67" transform="translate(328.34 828.07) rotate(-180)"></rect><path class="c97ba9fc-3429-4279-9b99-fe07d9da119c" d="M157.37,431.45s-4.65,11.5-7.78,13.28c0,0,11.53-7.46,11.93-15.61"></path><path class="c97ba9fc-3429-4279-9b99-fe07d9da119c" d="M197.22,430.68s-5-2.45-6.76,2.18-1.12,4.75-1.12,4.75l1.91.84-.22,7s7.57,0,8.54-1.61-1.49-8.66-1.49-8.66,1.48-.4,1.47-1.39-1.1-1.24-2.08-.25S197.22,430.68,197.22,430.68Z"></path><ellipse class="68055f92-2ed3-4905-837e-7181394bd745" cx="192.7" cy="433.24" rx="0.18" ry="0.2"></ellipse><path class="25b94cdb-a75f-4274-8dc1-7d779ce0e425" d="M191.49,430.87s1.08-4.45,2.27-4.88l.65.85s3.69-.71,4.39.36a10.53,10.53,0,0,0,1.82,2s-.56,2.77,0,3-3.27,1.84-3.27,1.84l.25-3.14-2-1-2.57.11Z"></path><path class="c97ba9fc-3429-4279-9b99-fe07d9da119c" d="M199.56,443.28s11.06,18.14,9.94,29.33c0,0-16.58,1.39-22-2.05,0,0,1-21.61,3.5-25.52C191,445,197.72,444.93,199.56,443.28Z"></path><path class="26184f2d-a53d-4d5b-92c0-66445893ce9a" d="M209.58,472.94s-8.43,15.2-13.68,26.72l-4.39.81s-3.45-20.86-3.55-29.69"></path><path class="ec845c34-bcba-4a64-8ce5-add72ffcfb73" d="M195.9,499.67V503s-5.37,2-8.38,0l4-2.57Z"></path><rect class="81a006e2-a876-4037-92cb-d5025222c08e" x="197.06" y="431.3" width="2.97" height="1.35" rx="0.67" ry="0.67" transform="translate(397.1 863.95) rotate(-180)"></rect><path class="c97ba9fc-3429-4279-9b99-fe07d9da119c" d="M191.75,449.39s-4.65,11.5-7.78,13.28c0,0,11.53-7.46,11.93-15.61"></path><polygon class="e7664d96-bf4b-4247-b36c-ce951f425de1" points="197.31 549.22 197.38 535.79 325.53 463.56 325.53 474.88 197.31 549.22"></polygon><polygon class="e7664d96-bf4b-4247-b36c-ce951f425de1" points="31.99 440.3 31.99 452.84 197.31 549.22 197.38 535.79 31.99 440.3"></polygon><g id="824063fd-52de-4d5f-ba83-bc7802655b83" data-name="trigger_cookie"><polygon class="1fe0c59d-45d5-415b-9586-2245cb15287d" points="57.86 388.7 105.73 417.05 105.73 398.64 57.86 370.39 57.86 388.7"></polygon><polygon class="92b74780-e160-483a-b117-2716c2948737" points="72.68 361.77 57.86 370.39 105.73 398.64 120.95 389.41 72.68 361.77"></polygon><polygon class="1fe0c59d-45d5-415b-9586-2245cb15287d" points="73.16 342.96 122.95 371.71 120.95 389.41 72.68 361.77 73.16 342.96"></polygon><polygon class="e7664d96-bf4b-4247-b36c-ce951f425de1" points="122.95 371.71 126.27 370.39 125.38 405.7 105.73 417.05 105.73 398.64 120.95 389.41 122.95 371.71"></polygon><polygon class="1fe0c59d-45d5-415b-9586-2245cb15287d" points="73.16 342.96 76.54 341.36 126.27 370.39 122.95 371.71 73.16 342.96"></polygon><ellipse class="1fe0c59d-45d5-415b-9586-2245cb15287d" cx="78.25" cy="372.63" rx="3.61" ry="4.94" transform="translate(-283.58 254.08) rotate(-60)"></ellipse><line class="3e757298-04e6-42dc-a762-6e351fa03c77" x1="78.25" y1="370.49" x2="78.36" y2="370.65"></line><line class="3e757298-04e6-42dc-a762-6e351fa03c77" x1="79.17" y1="371.25" x2="79.37" y2="371.47"></line><line class="3e757298-04e6-42dc-a762-6e351fa03c77" x1="79.27" y1="372.24" x2="79.27" y2="372.42"></line><line class="3e757298-04e6-42dc-a762-6e351fa03c77" x1="79.15" y1="373.95" x2="79.43" y2="374.33"></line><line class="3e757298-04e6-42dc-a762-6e351fa03c77" x1="80.64" y1="374.14" x2="80.72" y2="374.14"></line><line class="3e757298-04e6-42dc-a762-6e351fa03c77" x1="76.91" y1="371.85" x2="77.1" y2="371.95"></line><line class="3e757298-04e6-42dc-a762-6e351fa03c77" x1="75.43" y1="370.57" x2="75.43" y2="370.73"></line><line class="3e757298-04e6-42dc-a762-6e351fa03c77" x1="76.71" y1="373.26" x2="76.71" y2="373.4"></line><line class="3e757298-04e6-42dc-a762-6e351fa03c77" x1="77.5" y1="374.73" x2="77.84" y2="374.93"></line><path class="26184f2d-a53d-4d5b-92c0-66445893ce9a" d="M57.51,399.35s7.34,15.2,11.91,26.72l3.82.81s3-20.86,3.09-29.69"></path><path class="ec845c34-bcba-4a64-8ce5-add72ffcfb73" d="M69.43,425.59V429s5.56,2,8.69,0L74,426.4Z"></path><g id="296b5612-e930-4c28-a6d9-34fed62b20d8" data-name="now_cookie"><ellipse class="1fe0c59d-45d5-415b-9586-2245cb15287d" cx="90" cy="363.57" rx="4.94" ry="3.46" transform="translate(-36.51 11.04) rotate(-5.84)"></ellipse><line class="3e757298-04e6-42dc-a762-6e351fa03c77" x1="86.98" y1="362.74" x2="87.35" y2="362.88"></line><line class="3e757298-04e6-42dc-a762-6e351fa03c77" x1="90.4" y1="362.01" x2="90.61" y2="362.3"></line><line class="3e757298-04e6-42dc-a762-6e351fa03c77" x1="89.1" y1="363.55" x2="89.85" y2="363.67"></line><line class="3e757298-04e6-42dc-a762-6e351fa03c77" x1="92.34" y1="363.56" x2="92.44" y2="363.59"></line><line class="3e757298-04e6-42dc-a762-6e351fa03c77" x1="91.03" y1="364.83" x2="90.96" y2="365.11"></line><line class="3e757298-04e6-42dc-a762-6e351fa03c77" x1="88.16" y1="365.35" x2="87.93" y2="365.59"></line><line class="3e757298-04e6-42dc-a762-6e351fa03c77" x1="87.76" y1="363.63" x2="88.09" y2="363.39"></line></g><g id="5ce1ebc8-5703-4aee-b86a-61990ceb9a2d" data-name="cookie2"><ellipse class="1fe0c59d-45d5-415b-9586-2245cb15287d" cx="92" cy="275.14" rx="3.46" ry="4.94" transform="translate(-12.46 4.49) rotate(-2.62)"></ellipse><line class="3e757298-04e6-42dc-a762-6e351fa03c77" x1="93" y1="272.17" x2="92.84" y2="272.52"></line><line class="3e757298-04e6-42dc-a762-6e351fa03c77" x1="93.53" y1="275.63" x2="93.23" y2="275.82"></line><line class="3e757298-04e6-42dc-a762-6e351fa03c77" x1="92.07" y1="274.23" x2="91.91" y2="274.98"></line><line class="3e757298-04e6-42dc-a762-6e351fa03c77" x1="91.88" y1="277.47" x2="91.84" y2="277.57"></line><line class="3e757298-04e6-42dc-a762-6e351fa03c77" x1="90.68" y1="276.1" x2="90.41" y2="276.01"></line><line class="3e757298-04e6-42dc-a762-6e351fa03c77" x1="90.33" y1="273.2" x2="90.1" y2="272.95"></line><line class="3e757298-04e6-42dc-a762-6e351fa03c77" x1="92.07" y1="272.89" x2="92.29" y2="273.24"></line><path class="3e757298-04e6-42dc-a762-6e351fa03c77" d="M78.31,306.26s.83-26.17,6.43-22.11"></path></g><g id="4186fdb9-2372-4270-acc7-3bfcb515d4bf" data-name="cookie3"><ellipse class="1fe0c59d-45d5-415b-9586-2245cb15287d" cx="105.73" cy="325.03" rx="3.46" ry="4.94" transform="matrix(1, -0.05, 0.05, 1, -14.73, 5.16)"></ellipse><line class="3e757298-04e6-42dc-a762-6e351fa03c77" x1="106.73" y1="322.06" x2="106.56" y2="322.41"></line><line class="3e757298-04e6-42dc-a762-6e351fa03c77" x1="107.26" y1="325.52" x2="106.96" y2="325.71"></line><line class="3e757298-04e6-42dc-a762-6e351fa03c77" x1="105.8" y1="324.12" x2="105.63" y2="324.87"></line><line class="3e757298-04e6-42dc-a762-6e351fa03c77" x1="105.61" y1="327.36" x2="105.57" y2="327.46"></line><line class="3e757298-04e6-42dc-a762-6e351fa03c77" x1="104.41" y1="325.99" x2="104.14" y2="325.9"></line><line class="3e757298-04e6-42dc-a762-6e351fa03c77" x1="104.06" y1="323.09" x2="103.83" y2="322.84"></line><line class="3e757298-04e6-42dc-a762-6e351fa03c77" x1="105.79" y1="322.78" x2="106.01" y2="323.13"></line><path class="3e757298-04e6-42dc-a762-6e351fa03c77" d="M99.71,291.11s6,16.31,5.87,22.64"></path></g><path id="926f5f56-abda-4542-956a-25e255dd477f" data-name="cookie4" class="3e757298-04e6-42dc-a762-6e351fa03c77" d="M105.9,341.36s-.54,7.31-2,20.21"></path><g id="aea4e117-101f-4ae6-bdd7-56b9bc093ca7" data-name="cookie1"><ellipse class="1fe0c59d-45d5-415b-9586-2245cb15287d" cx="77.67" cy="321.48" rx="3.46" ry="4.94" transform="matrix(1, -0.05, 0.05, 1, -14.59, 3.88)"></ellipse><line class="3e757298-04e6-42dc-a762-6e351fa03c77" x1="78.67" y1="318.51" x2="78.5" y2="318.86"></line><line class="3e757298-04e6-42dc-a762-6e351fa03c77" x1="79.2" y1="321.96" x2="78.9" y2="322.16"></line><line class="3e757298-04e6-42dc-a762-6e351fa03c77" x1="77.73" y1="320.57" x2="77.57" y2="321.32"></line><line class="3e757298-04e6-42dc-a762-6e351fa03c77" x1="77.55" y1="323.81" x2="77.5" y2="323.91"></line><line class="3e757298-04e6-42dc-a762-6e351fa03c77" x1="76.35" y1="322.43" x2="76.08" y2="322.35"></line><line class="3e757298-04e6-42dc-a762-6e351fa03c77" x1="75.99" y1="319.54" x2="75.77" y2="319.29"></line><line class="3e757298-04e6-42dc-a762-6e351fa03c77" x1="77.73" y1="319.23" x2="77.95" y2="319.57"></line><path class="3e757298-04e6-42dc-a762-6e351fa03c77" d="M77.84,334.68s-.54,15.87,1.45,19.87"></path></g><g id="38c23511-cb7e-4501-a6cf-1e36862eb110" data-name="mother"><path class="78d5fa02-bad1-40fe-8f8a-e7bc249fa79a" d="M132.39,402.78s11,17.53,9.91,28.34c0,0-16.53,1.34-21.92-2,0,0,1-20.88,3.49-24.66C123.87,404.48,130.55,404.38,132.39,402.78Z"></path><polygon class="c97ba9fc-3429-4279-9b99-fe07d9da119c" points="132.11 403.24 126.04 406.27 125.02 404.75 132.11 403.24"></polygon><path class="78d5fa02-bad1-40fe-8f8a-e7bc249fa79a" d="M128.06,409.16s-8,8.66-11.47,9.1c0,0,13.13-2.42,16.08-9.65"></path><path class="26184f2d-a53d-4d5b-92c0-66445893ce9a" d="M142.38,431.45s-8.41,14.68-13.64,25.82l-4.37.78s-3.44-20.16-3.54-28.69"></path><line class="d31540de-92c8-49ec-b6ad-c21fe8c14781" x1="124.68" y1="419.7" x2="124.58" y2="429.36"></line><path class="25b94cdb-a75f-4274-8dc1-7d779ce0e425" d="M125.05,394.81c-3.81-1.31-5.11-7.64,5.65-4.69,0,0,1.91-.52,1.92-.48.24,1,2.4,17.75,6.63,14.21,0,0-4.36,4.51-6.69,2.55l-1.42-1.54-6.08-10S125.08,394.82,125.05,394.81Z"></path><path class="c97ba9fc-3429-4279-9b99-fe07d9da119c" d="M130.76,393.41a.12.12,0,0,0-.07-.14c-.68-.29-5.4-2.73-7,1.34-1.48,3.83-1.53,4-1.44,4.09l0,0,1.81.76a.13.13,0,0,1,.08.12l-.34,4.91s6.76.25,7.73-1.29-.2-5.81-.53-6.75a.13.13,0,0,1,.07-.17c.35-.11,1.35-.51,1.35-1.29,0-.95-1.1-1.18-2.07-.24S130.65,394,130.76,393.41Z"></path><ellipse class="68055f92-2ed3-4905-837e-7181394bd745" cx="125.85" cy="396.23" rx="0.18" ry="0.2"></ellipse><path class="ec845c34-bcba-4a64-8ce5-add72ffcfb73" d="M128.74,457.27v3.27s-5.35,1.93-8.36,0l4-2.49Z"></path></g><g id="e504ef46-377f-41f7-9054-ff379523aad5" data-name="child"><path class="b348f451-3fae-47ec-b0ec-9c43322c64df" d="M101.77,430S97,442.52,99.64,443.74s9.85.85,9.52-4.42a34.31,34.31,0,0,0-2.41-10.1Z"></path><ellipse class="cb0c433d-0bd1-482e-b0c2-2e9975312aa9" cx="104" cy="426.77" rx="4.66" ry="4.98"></ellipse><ellipse class="68055f92-2ed3-4905-837e-7181394bd745" cx="102.55" cy="424.72" rx="0.18" ry="0.2"></ellipse><path class="68055f92-2ed3-4905-837e-7181394bd745" d="M108.67,441.72s-4.47,6.89-5.8,10.4h-1.22l-2.75-8.83S105.14,443.84,108.67,441.72Z"></path><path class="68055f92-2ed3-4905-837e-7181394bd745" d="M103,452.13V454H99.72s-1.81-1,0-1.85,2,0,2,0Z"></path><path class="b348f451-3fae-47ec-b0ec-9c43322c64df" d="M102.37,433.27s-5.38-4.62-5.83-6,2.2,7.7,5.22,7.69"></path><polygon class="26184f2d-a53d-4d5b-92c0-66445893ce9a" points="102.73 421.79 104 419.88 109.6 421.79 111.83 426.77 110.81 429.47 106.7 429.35 106.7 426.77 104.53 423.98 102.73 421.79"></polygon></g><rect id="06bc5b8f-3dd6-4038-aff8-4c44004f6a0d" data-name="hidden" class="aa4e815b-4237-4a34-b732-95b246b0dfa8" x="43.48" y="335.25" width="105.72" height="132.43"></rect><g id="2c270196-602a-4416-98db-139c753a7816" data-name="sign"><path class="7b2e6411-de95-48f2-855b-7d61b3dfcd3f" d="M51.26,347l-.5,10.68H49.67L49.17,347Zm-.07,15.17h-2v-2.49h2Z"></path></g><g id="250b27c2-7f04-48b0-bdbe-f06fc925148a" data-name="man_upper"><path class="68055f92-2ed3-4905-837e-7181394bd745" d="M75.61,361.12s-.67-6.86-2.18-7.76l-3.5-1s-4.78-.17-5.68,2.08-2.41,5.31-2.41,5.31,1.4,2.59.68,3,3.28,4.91,3.28,4.91l2-6.6,2.5-2.08,3.27.24Z"></path><path class="c97ba9fc-3429-4279-9b99-fe07d9da119c" d="M66.23,371.51s-9.63,18.14-8.66,29.33c0,0,14.44,1.39,19.14-2.05,0,0-.86-21.61-3-25.52C73.67,373.26,67.83,373.16,66.23,371.51Z"></path><path class="c97ba9fc-3429-4279-9b99-fe07d9da119c" d="M68.07,359.15s5.23-2.33,7,2.08,1.16,4.52,1.16,4.52l-2,.8.23,6.61s-7.84,0-8.85-1.54,1.54-8.23,1.54-8.23-1.53-.38-1.52-1.32,1.14-1.18,2.16-.24S68.07,359.15,68.07,359.15Z"></path><ellipse class="68055f92-2ed3-4905-837e-7181394bd745" cx="73.91" cy="363.59" rx="0.19" ry="0.2"></ellipse><path class="c97ba9fc-3429-4279-9b99-fe07d9da119c" d="M68.22,382.82s-3.62-12.61,2.29-9S76.28,386.5,68.22,382.82Z"></path><g id="4d1f9a94-1b6e-4da6-9743-a5e1e64f010a" data-name="hand"><rect class="1fe0c59d-45d5-415b-9586-2245cb15287d" x="84.27" y="374.77" width="2.2" height="11.19" transform="translate(303.7 57.41) rotate(46.71)"></rect><polygon class="1fe0c59d-45d5-415b-9586-2245cb15287d" points="90.74 368.61 88.69 375.73 90.2 377.33 96.96 375.21 90.74 368.61"></polygon><path class="c97ba9fc-3429-4279-9b99-fe07d9da119c" d="M72.72,377.79s11.25,5.37,14.85,4.55c0,0-13.88,2.39-19.61-3.42"></path></g></g></g><g id="05f20987-b1ac-48b1-b928-285af4730eea" data-name="trigger_door_man"><path class="c97ba9fc-3429-4279-9b99-fe07d9da119c" d="M242.6,423s-5-2.45-6.76,2.18-1.12,4.75-1.12,4.75l1.91.84-.22,7s7.57,0,8.54-1.61-1.49-8.66-1.49-8.66,1.48-.4,1.47-1.39-1.1-1.24-2.08-.25S242.6,423,242.6,423Z"></path><ellipse class="68055f92-2ed3-4905-837e-7181394bd745" cx="238.08" cy="425.55" rx="0.18" ry="0.2"></ellipse><path class="25b94cdb-a75f-4274-8dc1-7d779ce0e425" d="M236.87,423.18s1.08-4.45,2.27-4.88l.65.85s3.69-.71,4.39.36a10.53,10.53,0,0,0,1.82,2s-.56,2.77,0,3-3.27,1.84-3.27,1.84l.25-3.14-2-1-2.57.11Z"></path><path class="c97ba9fc-3429-4279-9b99-fe07d9da119c" d="M244.94,435.59s11.06,18.14,9.94,29.33c0,0-16.58,1.39-22-2.05,0,0,1-21.61,3.5-25.52C236.4,437.34,243.1,437.24,244.94,435.59Z"></path><path class="26184f2d-a53d-4d5b-92c0-66445893ce9a" d="M255,465.25s-8.43,15.2-13.68,26.72l-4.39.81s-3.45-20.86-3.55-29.69"></path><path class="ec845c34-bcba-4a64-8ce5-add72ffcfb73" d="M241.28,492v3.38s-5.37,2-8.38,0l4-2.57Z"></path><rect class="81a006e2-a876-4037-92cb-d5025222c08e" x="242.44" y="423.61" width="2.97" height="1.35" rx="0.67" ry="0.67" transform="translate(487.86 848.57) rotate(-180)"></rect><path class="c97ba9fc-3429-4279-9b99-fe07d9da119c" d="M237.13,441.7s-4.65,11.5-7.78,13.28c0,0,11.53-7.46,11.93-15.61"></path><rect id="ac470111-f0e2-48c4-bc10-6c52b34dbd17" data-name="hidden" class="aa4e815b-4237-4a34-b732-95b246b0dfa8" x="216.39" y="410.5" width="45.03" height="93.55"></rect><g id="001d849e-f16a-493c-89ce-6ba356cb4312" data-name="sign"><path class="7b2e6411-de95-48f2-855b-7d61b3dfcd3f" d="M225.65,420.59l-.5,10.68h-1.09l-.5-10.68Zm-.07,15.17h-2v-2.49h2Z"></path></g></g></g></g></g></svg>